<?xml version="1.0" encoding="utf-8"?>
<!-- Generator: Adobe Illustrator 19.2.1, SVG Export Plug-In . SVG Version: 6.00 Build 0)  -->
<svg version="1.1" id="Capa_1" xmlns="http://www.w3.org/2000/svg" xmlns:xlink="http://www.w3.org/1999/xlink" x="0px" y="0px"
	 viewBox="0 0 512 512" style="enable-background:new 0 0 512 512;" xml:space="preserve">
<style type="text/css">
	.st0{fill:#520154;}
	.st1{fill:#260028;}
</style>
<rect x="131" y="132" class="st0" width="265" height="274"/>
<g>
	<g>
		<path class="st1" d="M256,184.5c-39.4,0-71.5,32.1-71.5,71.5s32.1,71.5,71.5,71.5s71.5-32.1,71.5-71.5S295.4,184.5,256,184.5z
			 M256,299.5c-24,0-43.5-19.5-43.5-43.5c0-24.1,19.5-43.5,43.5-43.5s43.5,19.5,43.5,43.5S280,299.5,256,299.5z"/>
		<path class="st1" d="M256,0C114.6,0,0,114.6,0,256s114.6,256,256,256s256-114.6,256-256S397.4,0,256,0z M256,344.7
			c-48.9,0-88.7-39.8-88.7-88.7s39.8-88.7,88.7-88.7s88.7,39.8,88.7,88.7S304.9,344.7,256,344.7z"/>
	</g>
</g>
</svg>
